<?xml version="1.0" encoding="UTF-8" standalone="no"?>
<svg
   version="1.1"
   viewBox="0 0 50 50"
   height="50"
   width="50">
  <g
     transform="matrix(0.19060855,0,0,0.19060855,4.9743894,6.510954)"
     style="fill:none;fill-rule:evenodd;stroke:none;stroke-width:5.2463541"
     sketch:type="MSShapeGroup">
    <g
       transform="matrix(0.06844565,0,0,0.06844565,79.543174,77.620001)">
      <path
         style="clip-rule:evenodd;fill:#f1502f;fill-rule:evenodd;stroke-width:27.52423286;stroke-linecap:square;stroke-miterlimit:1.5"
         d="m 1969.3847,499.95594 c 119.6578,-119.6575 119.6468,-313.9622 0,-433.601204 L 589.62729,-1313.4102 c -119.6575,-119.6575 -313.951,-119.6575 -433.6085,0 L -1223.7315,66.339936 c -119.6574,119.657504 -119.6537,313.947404 0,433.604804 L 156.03729,1879.7098 c 119.639,119.6389 313.9399,119.6538 433.5974,0 z" />
      <g
         style="clip-rule:evenodd;fill-rule:evenodd;stroke-linecap:square;stroke-miterlimit:1.5"
         transform="matrix(6.5212185,0,0,6.5212185,-1852.4806,-4483.5298)">
        <circle
           cx="292.38199"
           cy="605.211"
           r="40.599998"
           style="fill:#ffffff" />
      </g>
      <g
         style="clip-rule:evenodd;fill-rule:evenodd;stroke-linecap:square;stroke-miterlimit:1.5"
         transform="matrix(5.3798741,0,0,5.3798741,-2129.1366,-2481.159)">
        <circle
           cx="292.38199"
           cy="605.211"
           r="40.599998"
           style="fill:#ffffff" />
      </g>
      <g
         style="clip-rule:evenodd;fill-rule:evenodd;stroke-linecap:square;stroke-miterlimit:1.5"
         transform="matrix(3.4841092,0,0,3.4841092,-1121.7369,-1505.464)">
        <circle
           cx="292.38199"
           cy="605.211"
           r="40.599998"
           style="fill:#ffffff" />
      </g>
      <g
         style="clip-rule:evenodd;fill-rule:evenodd;stroke-linecap:square;stroke-miterlimit:1.5"
         transform="matrix(3.4841092,0,0,3.4841092,178.74519,-1999.5531)">
        <circle
           cx="292.38199"
           cy="605.211"
           r="40.599998"
           style="fill:#ffffff" />
      </g>
      <g
         style="clip-rule:evenodd;fill-rule:evenodd;stroke-linecap:square;stroke-miterlimit:1.5"
         transform="matrix(5.2463544,0,0,5.2463544,-4166.5562,-1753.5744)">
        <path
           d="m 824.951,268.048 73.481,127.391 -80.428,84.753 4.682,124.633 -35.784,-0.971"
           style="fill:none;stroke:#ffffff;stroke-width:25px" />
      </g>
      <path
         d="M 1107.0089,-1.4223644 603.60019,-544.8135 -132.53151,-78.166064 31.474788,278.75394 l -118.384,306.0671"
         style="clip-rule:evenodd;fill:none;fill-rule:evenodd;stroke:#ffffff;stroke-width:131.15885925px;stroke-linecap:square;stroke-miterlimit:1.5" />
      <g
         style="clip-rule:evenodd;fill-rule:evenodd;stroke-linecap:square;stroke-miterlimit:1.5"
         transform="matrix(5.2069813,-0.6415453,0.6415453,5.2069813,-4594.8136,-1107.9926)">
        <path
           d="m 989.073,592.703 16.907,-40.082 -59.796,-54.074 -2.237,-91.826"
           style="fill:none;stroke:#ffffff;stroke-width:25px" />
      </g>
      <path
         d="M 1183.6319,74.828136 -539.06627,781.67474"
         style="clip-rule:evenodd;fill:none;fill-rule:evenodd;stroke:#ffffff;stroke-width:78.6953125px;stroke-linecap:square;stroke-miterlimit:1.5" />
    </g>
  </g>
</svg>
