<?xml version="1.0" encoding="UTF-8" standalone="no"?>
<svg
   version="1.1"
   viewBox="0 0 50 50"
   height="50"
    width="50">
  <g
     transform="matrix(0.19060855,0,0,0.19060855,4.9743894,6.510954)"
     style="fill:none;fill-rule:evenodd;stroke:none;stroke-width:5.2463541"
     sketch:type="MSShapeGroup">
    <g
       style="stroke-width:5.2463541">
      <path
         style="fill:#505050;stroke-width:5.2463541;fill-opacity:1"
         d="m 105.0614,193.655 v 0 l 38.64,-118.921 h -77.28 z" />
      <path
         style="fill:#fc6d26;stroke-width:5.2463541"
         d="" />
      <path
         style="fill:#7b7b7b;stroke-width:5.2463541;fill-opacity:1"
         d="M 105.0614,193.6548 66.4214,74.7338 H 12.2684 Z" />
      <path
         style="fill:#fc6d26;stroke-width:5.2463541"
         d="" />
      <path
         style="fill:#919191;stroke-width:5.2463541;fill-opacity:1"
         d="m 12.2685,74.7341 v 0 l -11.742,36.139 c -1.071,3.296 0.102,6.907 2.906,8.944 l 101.629,73.838 z" />
      <path
         style="fill:#fc6d26;stroke-width:5.2463541"
         d="" />
      <path
         style="fill:#505050;stroke-width:5.2463541;fill-opacity:1"
         d="m 12.2685,74.7342 h 54.153 L 43.1485,3.1092 c -1.197,-3.686 -6.411,-3.685 -7.608,0 z" />
      <path
         style="fill:#7b7b7b;stroke-width:5.2463541;fill-opacity:1"
         d="m 105.0614,193.6548 38.64,-118.921 h 54.153 z" />
      <path
         style="fill:#919191;stroke-width:5.2463541;fill-opacity:1"
         d="m 197.8544,74.7341 v 0 l 11.742,36.139 c 1.071,3.296 -0.102,6.907 -2.906,8.944 l -101.629,73.838 z" />
      <path
         style="fill:#505050;stroke-width:5.2463541;fill-opacity:1"
         d="m 197.8544,74.7342 h -54.153 l 23.273,-71.625 c 1.197,-3.686 6.411,-3.685 7.608,0 z" />
    </g>
  </g>
</svg>
